<svg width="1200" height="1400" viewBox="0 0 1200 1400" fill="none" xmlns="http://www.w3.org/2000/svg">
  <rect width="1200" height="1400" rx="56" fill="#EAF7EB"/>
  <rect x="72" y="72" width="1056" height="1256" rx="44" fill="#D8EFD9"/>
  <path d="M165 180C337 126 511 122 674 160C857 202 1002 304 1030 452C1060 612 961 733 818 803C684 869 610 946 595 1069C576 1217 432 1258 300 1186C164 1111 116 971 154 839C191 710 304 633 302 528C300 400 195 307 165 180Z" fill="#C1E4C4"/>
  <path d="M301 244C448 212 586 216 733 251C830 274 931 332 979 407C1028 486 1025 585 977 666C916 769 807 811 716 868C631 920 572 999 553 1091C531 1194 426 1227 333 1189C242 1151 192 1067 199 981C206 900 256 829 308 764C377 675 427 571 412 468C400 389 340 325 301 244Z" fill="#B3DBB8"/>
  <path d="M218 350C354 284 488 270 635 293C768 314 888 379 937 480C981 571 943 684 869 760C796 835 690 877 623 953C550 1037 520 1158 404 1180C321 1196 252 1163 213 1103C180 1053 172 983 185 916C213 767 359 690 390 545C408 463 364 390 218 350Z" fill="#A4D2AA"/>
  <path d="M910 195C980 200 1043 222 1091 270C1127 307 1126 358 1085 389C1043 421 977 426 923 406C877 389 838 353 829 307C819 253 854 190 910 195Z" fill="#F7D59A"/>
  <path d="M138 1012C190 997 248 1000 297 1024C341 1046 374 1086 371 1135C367 1190 309 1217 258 1212C196 1207 138 1168 121 1112C111 1079 111 1019 138 1012Z" fill="#FFE5A8"/>
  <path d="M636 1038C702 1004 770 982 845 987C919 992 991 1027 1023 1091C1061 1168 1018 1265 935 1294C831 1330 710 1304 625 1240C568 1198 531 1128 565 1074C581 1048 608 1032 636 1038Z" fill="#D5C8F4"/>
  <path d="M177 731C224 707 279 703 332 711C386 720 440 747 471 793C501 838 505 903 468 944C438 976 392 987 350 979C294 969 240 941 204 896C170 855 134 793 177 731Z" fill="#CCEAD0"/>
  <path d="M270 240C421 203 587 201 741 233C866 259 985 319 1047 428C1107 533 1099 668 1032 762C967 853 864 902 777 959C691 1016 641 1109 623 1212" stroke="#FCFDF7" stroke-width="44" stroke-linecap="round"/>
  <path d="M422 200C492 302 602 356 722 386C792 404 871 413 933 451" stroke="#D3F0D7" stroke-width="12" stroke-linecap="round" stroke-dasharray="18 18"/>
  <path d="M347 621C439 643 531 626 612 587C701 544 775 483 862 453" stroke="#D3F0D7" stroke-width="12" stroke-linecap="round" stroke-dasharray="18 18"/>
  <path d="M300 949C395 909 492 912 583 948C659 978 725 1034 771 1107" stroke="#D3F0D7" stroke-width="12" stroke-linecap="round" stroke-dasharray="18 18"/>
  <circle cx="232" cy="236" r="18" fill="#2E7D32"/>
  <circle cx="969" cy="461" r="18" fill="#2E7D32"/>
  <circle cx="617" cy="634" r="18" fill="#2E7D32"/>
  <circle cx="319" cy="1077" r="18" fill="#2E7D32"/>
  <circle cx="735" cy="1176" r="18" fill="#2E7D32"/>
  <rect x="815" y="188" width="182" height="90" rx="24" fill="#FFF9E9" stroke="#E8D6A2" stroke-width="6"/>
  <text x="847" y="241" fill="#815C10" font-family="Arial, sans-serif" font-size="34" font-weight="700">Lion Safari</text>
  <rect x="879" y="511" width="188" height="92" rx="24" fill="#EDF7EE" stroke="#A8D2AC" stroke-width="6"/>
  <text x="904" y="565" fill="#1B5E20" font-family="Arial, sans-serif" font-size="34" font-weight="700">Snake Tunnel</text>
  <rect x="469" y="717" width="222" height="94" rx="24" fill="#F2FBF3" stroke="#A8D2AC" stroke-width="6"/>
  <text x="509" y="772" fill="#1B5E20" font-family="Arial, sans-serif" font-size="34" font-weight="700">Birds Cage</text>
  <rect x="125" y="1180" width="238" height="94" rx="24" fill="#FFF7DE" stroke="#E7CF88" stroke-width="6"/>
  <text x="169" y="1236" fill="#8A6114" font-family="Arial, sans-serif" font-size="34" font-weight="700">Food Court</text>
  <rect x="648" y="1251" width="206" height="94" rx="24" fill="#F1EAFE" stroke="#C9B6F2" stroke-width="6"/>
  <text x="690" y="1307" fill="#5E35B1" font-family="Arial, sans-serif" font-size="34" font-weight="700">Washrooms</text>
  <rect x="121" y="96" width="226" height="74" rx="22" fill="#FFFFFF" fill-opacity="0.88"/>
  <text x="160" y="143" fill="#1B5E20" font-family="Arial, sans-serif" font-size="38" font-weight="700">Safari Visitor Map</text>
</svg>